{
	"asset":{
		"generator":"Khronos glTF Blender I/O v4.1.62",
		"version":"2.0"
	},
	"scene":0,
	"scenes":[
		{
			"name":"Scene",
			"nodes":[
				0,
				1,
				2
			]
		}
	],
	"nodes":[
		{
			"mesh":0,
			"name":"Cylinder",
			"rotation":[
				0.3965052366256714,
				0.5553750991821289,
				0.4863910973072052,
				0.5456792712211609
			],
			"scale":[
				1.6762014627456665,
				0.811566174030304,
				1.4618796110153198
			],
			"translation":[
				0.4575994610786438,
				1.6997435092926025,
				-0.0980544239282608
			]
		},
		{
			"mesh":1,
			"name":"Plane",
			"scale":[
				7.772867202758789,
				7.772867202758789,
				7.772867202758789
			]
		},
		{
			"mesh":2,
			"name":"Plane.001",
			"rotation":[
				0.4646478593349457,
				0.5265664458274841,
				0.46163100004196167,
				0.5419658422470093
			],
			"scale":[
				7.568144798278809,
				7.519131660461426,
				7.568144798278809
			],
			"translation":[
				0.29390889406204224,
				1.7714225053787231,
				-2.341904640197754
			]
		}
	],
	"materials":[
		{
			"doubleSided":true,
			"name":"red blood cell",
			"pbrMetallicRoughness":{
				"baseColorFactor":[
					0.686681866645813,
					0.006048751529306173,
					0.014443857595324516,
					1
				],
				"metallicFactor":0,
				"roughnessFactor":0.3694656491279602
			}
		},
		{
			"doubleSided":true,
			"name":"background pic",
			"pbrMetallicRoughness":{
				"baseColorFactor":[
					0.8468678593635559,
					0.8879238367080688,
					0.9046615958213806,
					1
				],
				"metallicFactor":0,
				"roughnessFactor":0.5
			}
		}
	],
	"meshes":[
		{
			"name":"Cylinder.001",
			"primitives":[
				{
					"attributes":{
						"POSITION":0,
						"NORMAL":1,
						"TEXCOORD_0":2
					},
					"indices":3,
					"material":0
				}
			]
		},
		{
			"name":"Plane",
			"primitives":[
				{
					"attributes":{
						"POSITION":4,
						"NORMAL":5,
						"TEXCOORD_0":6
					},
					"indices":7,
					"material":1
				}
			]
		},
		{
			"name":"Plane.001",
			"primitives":[
				{
					"attributes":{
						"POSITION":8,
						"NORMAL":9,
						"TEXCOORD_0":10
					},
					"indices":7,
					"material":1
				}
			]
		}
	],
	"accessors":[
		{
			"bufferView":0,
			"componentType":5126,
			"count":1669,
			"max":[
				1.0000001192092896,
				0.3681500256061554,
				1.0000001192092896
			],
			"min":[
				-1.0000001192092896,
				-0.3681500256061554,
				-1.0000001192092896
			],
			"type":"VEC3"
		},
		{
			"bufferView":1,
			"componentType":5126,
			"count":1669,
			"type":"VEC3"
		},
		{
			"bufferView":2,
			"componentType":5126,
			"count":1669,
			"type":"VEC2"
		},
		{
			"bufferView":3,
			"componentType":5123,
			"count":7296,
			"type":"SCALAR"
		},
		{
			"bufferView":4,
			"componentType":5126,
			"count":4,
			"max":[
				1,
				0,
				1
			],
			"min":[
				-1,
				0,
				-1
			],
			"type":"VEC3"
		},
		{
			"bufferView":5,
			"componentType":5126,
			"count":4,
			"type":"VEC3"
		},
		{
			"bufferView":6,
			"componentType":5126,
			"count":4,
			"type":"VEC2"
		},
		{
			"bufferView":7,
			"componentType":5123,
			"count":6,
			"type":"SCALAR"
		},
		{
			"bufferView":8,
			"componentType":5126,
			"count":4,
			"max":[
				1,
				0,
				1
			],
			"min":[
				-1,
				0,
				-1
			],
			"type":"VEC3"
		},
		{
			"bufferView":9,
			"componentType":5126,
			"count":4,
			"type":"VEC3"
		},
		{
			"bufferView":10,
			"componentType":5126,
			"count":4,
			"type":"VEC2"
		}
	],
	"bufferViews":[
		{
			"buffer":0,
			"byteLength":20028,
			"byteOffset":0,
			"target":34962
		},
		{
			"buffer":0,
			"byteLength":20028,
			"byteOffset":20028,
			"target":34962
		},
		{
			"buffer":0,
			"byteLength":13352,
			"byteOffset":40056,
			"target":34962
		},
		{
			"buffer":0,
			"byteLength":14592,
			"byteOffset":53408,
			"target":34963
		},
		{
			"buffer":0,
			"byteLength":48,
			"byteOffset":68000,
			"target":34962
		},
		{
			"buffer":0,
			"byteLength":48,
			"byteOffset":68048,
			"target":34962
		},
		{
			"buffer":0,
			"byteLength":32,
			"byteOffset":68096,
			"target":34962
		},
		{
			"buffer":0,
			"byteLength":12,
			"byteOffset":68128,
			"target":34963
		},
		{
			"buffer":0,
			"byteLength":48,
			"byteOffset":68140,
			"target":34962
		},
		{
			"buffer":0,
			"byteLength":48,
			"byteOffset":68188,
			"target":34962
		},
		{
			"buffer":0,
			"byteLength":32,
			"byteOffset":68236,
			"target":34962
		}
	],
	"buffers":[
		{
			"byteLength":68268,
			"uri":"redbloodcell.bin"
		}
	]
}
